<svg version="1.1" id="Layer_1" xmlns="http://www.w3.org/2000/svg" xmlns:xlink="http://www.w3.org/1999/xlink" x="0px" y="0px"
	 viewBox="0 0 448 448" fill="currentColor" xml:space="preserve">
<path d="M16,100h416c8.8,0,16-7.2,16-16V44c0-8.8-7.2-16-16-16H16C7.2,28,0,35.2,0,44v40C0,92.8,7.2,100,16,100z M16,260h416
	c8.8,0,16-7.2,16-16v-40c0-8.8-7.2-16-16-16H16c-8.8,0-16,7.2-16,16v40C0,252.8,7.2,260,16,260z M16,420h416c8.8,0,16-7.2,16-16v-40
	c0-8.8-7.2-16-16-16H16c-8.8,0-16,7.2-16,16v40C0,412.8,7.2,420,16,420z"/>
</svg>
