<svg width="1067pt" height="1067pt" viewBox="0 0 1067 1067" version="1.1" xmlns="http://www.w3.org/2000/svg" fill="currentColor">
<path d=" M 268.15 91.01 C 329.55 55.95 401.56 39.75 472.06 45.42 C 546.91 51.18 619.55 81.58 676.37 130.62 C 726.66 173.71 764.30 231.28 783.75 294.57 C 788.23 309.92 800.79 322.56 816.14 327.06 C 857.72 339.23 897.01 359.21 931.30 385.71 C 971.17 416.45 1004.27 455.92 1027.53 500.58 C 1045.82 535.58 1058.07 573.72 1063.70 612.81 C 1065.10 621.63 1065.55 630.57 1067.00 639.39 L 1067.00 685.56 C 1065.46 694.95 1064.99 704.48 1063.42 713.88 C 1053.17 783.00 1021.50 848.71 973.94 899.89 C 933.21 944.01 880.79 977.16 823.51 995.16 C 816.45 997.23 809.44 999.97 801.99 1000.12 C 789.03 1000.65 775.99 995.14 767.34 985.48 C 758.24 975.49 754.13 961.21 756.56 947.91 C 759.23 931.80 771.54 917.65 787.29 913.16 C 795.43 910.91 803.46 908.28 811.35 905.25 C 869.85 883.02 919.50 838.72 948.35 783.20 C 967.61 746.29 978.23 704.66 977.63 662.96 C 977.19 609.83 960.13 557.04 929.55 513.61 C 899.16 470.09 855.37 436.08 805.62 417.55 C 795.65 413.63 785.13 411.23 775.35 406.82 C 738.64 391.06 709.73 358.46 698.46 320.14 C 680.41 260.17 640.51 207.05 587.68 173.37 C 552.09 150.46 510.99 136.23 468.88 132.16 C 432.36 128.56 395.12 132.73 360.28 144.22 C 300.35 163.83 247.81 205.29 215.38 259.42 C 193.01 296.34 179.82 338.76 177.25 381.85 C 174.25 430.05 184.94 478.95 207.50 521.63 C 216.79 538.99 219.98 559.51 216.43 578.87 C 211.91 604.85 195.12 628.38 171.87 640.88 C 157.66 648.30 144.55 657.88 133.31 669.34 C 99.44 703.22 82.94 753.57 90.68 800.90 C 98.13 834.90 116.58 866.34 142.48 889.59 C 172.97 917.26 213.86 933.16 255.05 933.13 C 262.07 933.28 269.20 932.55 276.12 934.13 C 290.00 937.02 302.09 947.08 307.58 960.14 C 312.47 971.50 312.30 984.90 307.13 996.13 C 301.59 1008.39 290.21 1017.85 277.09 1020.90 C 270.19 1022.67 263.02 1022.00 255.98 1022.13 C 194.29 1022.18 133.02 998.98 86.62 958.35 C 45.85 923.02 16.60 874.65 4.39 822.09 C 1.64 811.44 0.77 800.43 0.00 789.50 L 0.00 764.43 C 2.51 715.39 20.36 667.27 50.56 628.53 C 72.00 600.85 99.57 577.96 130.70 561.92 C 111.60 527.16 98.64 489.05 92.63 449.85 C 80.94 375.11 95.51 296.97 131.51 230.60 C 162.86 172.55 210.77 123.59 268.15 91.01 Z" />
<path d=" M 331.64 681.46 C 337.89 664.39 355.63 651.72 374.01 652.99 C 386.08 652.45 397.88 658.22 406.01 666.94 C 448.46 709.34 490.78 751.86 533.33 794.15 C 575.64 751.21 618.53 708.84 661.07 666.11 C 670.47 656.34 684.56 651.44 698.00 653.10 C 710.53 654.45 722.23 661.53 729.40 671.88 C 741.87 689.13 739.31 715.16 723.55 729.53 C 681.04 772.01 638.56 814.50 596.07 857.00 C 635.32 895.73 674.12 934.94 713.19 973.87 C 721.19 982.13 730.82 989.66 734.52 1001.02 C 741.45 1018.79 734.93 1040.39 719.70 1051.75 C 712.73 1057.00 704.17 1060.42 695.40 1060.63 L 695.68 1061.32 C 694.61 1061.36 692.48 1061.44 691.42 1061.47 L 691.29 1060.71 C 679.84 1060.64 668.60 1055.53 660.71 1047.29 C 618.28 1004.82 575.82 962.39 533.37 919.94 C 490.48 962.83 447.59 1005.72 404.70 1048.62 C 396.86 1056.36 386.01 1060.90 375.01 1061.19 C 360.90 1061.73 346.82 1055.01 338.30 1043.76 C 327.58 1030.09 326.17 1010.02 334.80 994.95 C 338.14 988.54 343.72 983.82 348.70 978.74 C 389.23 938.19 429.79 897.67 470.31 857.12 C 429.07 815.87 387.82 774.63 346.59 733.39 C 342.95 729.71 339.02 726.23 336.22 721.83 C 328.29 710.16 326.77 694.62 331.64 681.46 Z" />
</svg>
