<svg version="1.1" xmlns="http://www.w3.org/2000/svg" xmlns:xlink="http://www.w3.org/1999/xlink" x="0px" y="0px" viewBox="0 0 426 426" xml:space="preserve" fill="currentColor">
<path d="M277.33,342.38v83.92h-128v-83.92c0-35.35,28.65-64,64-64S277.33,307.03,277.33,342.38z"/>
<path d="M426.66,195.54v209.43c0,11.78-9.55,21.33-21.33,21.33H320v-83.92c0-58.91-47.76-106.67-106.67-106.67 s-106.67,47.76-106.67,106.67v83.92H21.33C9.55,426.3,0,416.75,0,404.97V195.54c0.02-5.65,2.26-11.07,6.25-15.08L168.06,18.69 c25.04-24.92,65.5-24.92,90.54,0l161.81,161.83C424.38,184.52,426.63,189.91,426.66,195.54z"/>
</svg>
