<svg xmlns="http://www.w3.org/2000/svg" xmlns:xlink="http://www.w3.org/1999/xlink" version="1.1" id="Filled" x="0px" y="0px" viewBox="0 0 512 512" style="enable-background:new 0 0 512 512;" xml:space="preserve" width="512" height="512" fill="currentColor">
<path d="M256,320c-35.346,0-64,28.654-64,64v128h128V384C320,348.654,291.346,320,256,320z"/>
<g>
	<path d="M362.667,384v128H448c35.346,0,64-28.654,64-64V253.419c0.005-11.083-4.302-21.733-12.011-29.696L318.699,27.733   c-31.988-34.61-85.976-36.735-120.586-4.747c-1.644,1.52-3.228,3.103-4.747,4.747L12.395,223.659   C4.453,231.655-0.003,242.469,0,253.739V448c0,35.346,28.654,64,64,64h85.333V384c0.399-58.172,47.366-105.676,104.073-107.044   C312.01,275.542,362.22,323.855,362.667,384z"/>
	<path d="M256,320c-35.346,0-64,28.654-64,64v128h128V384C320,348.654,291.346,320,256,320z"/>
</g>
</svg>
