<svg version="1.1" id="Layer_1" xmlns="http://www.w3.org/2000/svg" xmlns:xlink="http://www.w3.org/1999/xlink" x="0px" y="0px" viewBox="0 0 252 252" xml:space="preserve" fill="currentColor">
<g>
	<path d="M57.6,0.8C59,0.1,60.7,0,62.3,0c43,0.1,86,0,129,0c4.6-0.1,8.9,3.9,9.1,8.5c0.2,3.7,0.3,7.4-0.2,11
		c-0.9,4.4-5.4,7.4-9.8,7.1c-42.7,0-85.4,0-128.1,0c-3.7,0.2-7.5-1.7-9.1-5.1c-1.7-3.7-1-8-1-12C52,5.9,54.3,2.4,57.6,0.8z"/>
	<path d="M52.7,40.9c2.8-2,6.4-0.1,9.5-0.4c36.3,0.2,72.7-0.1,109.1,0c8.7-0.1,17.4,0.4,26-0.5c2.3-0.3,3.7,2,4.8,3.7
		c2.5,4.2,5,8.4,7.5,12.5c5.1,8.5,8.1,18.3,8.4,28.3c0.3,39.4,0.6,78.7,0.7,118c-0.1,7.4-1.8,14.7-5,21.3
		c-7.8,16.4-25.2,27.8-43.4,28.1c-28.7,0.1-57.4,0-86.1,0c-14.2,0.2-28.3-6.1-37.7-16.7c-8-8.9-12.7-20.8-12.7-32.7
		c0.2-39.4,0.4-78.7,0.7-118.1c0.3-10.7,3.8-21.2,9.6-30.1C47.1,49.9,49.3,45,52.7,40.9 M60.4,54.6C54.8,63.5,49,72.9,48.7,83.8
		c-0.4,39.9-0.6,79.8-0.8,119.6c0.3,18.2,16.4,34.2,34.6,34.5c27,0.1,53.9,0,80.9,0.1c5.7,0.1,11.5,0,16.9-1.9
		c14.2-4.6,24.6-18.7,24.6-33.6c-0.2-39.3-0.4-78.7-0.8-118c-0.1-11.1-6-20.8-11.8-29.9C148.3,54.7,104.4,54.6,60.4,54.6z"/>
	<path d="M82.8,107.1c10.5-2.1,18.4,6.2,27.6,9.4c9.5,3.5,20.4,6.2,30.2,2.2c3.5-1.2,5.1-4.8,7.7-7.2
		c3.2-2,7.3-1.6,10.9-1.4c8.9,1,17.5,3.7,25.8,6.7c3.2,1.1,5.4,4.3,5.4,7.7c0.3,25.7,0.2,51.3,0.4,77c0.3,8.4-4.7,16.6-12.2,20.2
		c-3.8,1.9-8.1,2.5-12.3,2.4c-27.6,0-55.3,0-82.9,0c-8.6,0-16.8-5.7-20-13.7c-2.5-6-1.5-12.6-1.6-18.8c0-20.7,0.6-41.3,0.3-62
		c0.1-3.2-0.5-6.5,0.4-9.6C67.6,113.5,74.7,108.4,82.8,107.1z"/>
</g>
</svg>
