<svg version="1.1" id="Layer_1" xmlns="http://www.w3.org/2000/svg" xmlns:xlink="http://www.w3.org/1999/xlink" x="0px" y="0px" viewBox="0 0 250 250" xml:space="preserve" fill="currentColor">
<g>
	<path d="M50.1,11.5c0.2-5.4,4.6-10.1,9.7-11.2C62.6-0.1,65.3,0.1,68,0c40,0,79.9,0,119.9,0c6.2,0,11.8,5.3,12.1,11.5
		c0.2,4,0.4,8-0.4,11.9c-0.8,3.4-3.3,6-6.2,7.9c3.6,5.7,6.9,11.5,10.5,17.2c3.1,5.3,6.7,10.5,8.9,16.3c2.9,7.2,4.3,14.9,4.3,22.7
		c0.1,37.3,0.4,74.6,0.6,112c-0.2,20.3-13.7,39.6-32.6,46.9c-6,2.4-12.5,3.6-19,3.6c-27.4,0-54.8,0-82.1,0
		c-15.4,0-30.6-7.3-40.1-19.4c-7.5-9.3-11.7-21.2-11.4-33.2c0.2-34,0.3-68,0.5-102c0.3-6.6-0.2-13.3,1.2-19.8
		c1.4-7.2,4.1-14,7.9-20.2c4.9-8,9.7-16.2,14.7-24.1c-3.2-2.1-5.9-5.2-6.4-9.1C49.9,18.7,50.1,15.1,50.1,11.5 M60.1,7.6
		c-4.5,2.3-2.7,7.9-3,12c-0.5,3.3,2.5,6.4,5.8,6.1c41.4,0,82.8,0,124.1,0c2.5,0.1,5.2-1.5,5.7-4.1c0.5-3,0.3-6.2,0.2-9.2
		c0-3.1-3-5.7-6.1-5.3c-40.7,0-81.3,0-121.9,0C63.4,7.2,61.6,6.8,60.1,7.6 M64,32.7c-5.3,8.9-10.7,17.8-16.1,26.6
		c-4.6,7.6-7.4,16.3-7.7,25.1c-0.5,37.7-0.5,75.3-0.8,113c-0.2,10.1,3.2,20.2,9.4,28.1C57,236.4,70.4,243,83.9,243
		c27.3,0,54.7,0,82,0c10.8,0,21.4-4,29.5-11.2c9.5-8.3,15.3-20.7,15.2-33.3c-0.2-37-0.4-74-0.6-111c-0.1-9.6-2.6-19.3-7.6-27.6
		c-5.5-9.1-10.9-18.2-16.5-27.2C145.3,32.8,104.7,32.7,64,32.7z"/>
	<path d="M78.5,104.3c7.2-2.5,15.4-1.1,21.7,3c10.6,6.1,23.2,11,35.5,8.1c4.8-0.8,5.8-6.4,10-8
		c3.8-1.7,8.1-1.5,12.2-1.1c8.6,1.1,16.9,3.7,25,6.6c4.4,1.5,7.6,5.9,7.5,10.6c0.1,24.7,0.2,49.4,0.4,74.1c0.3,8-3.6,16-10.1,20.7
		c-4.5,3.3-10.1,4.9-15.6,4.8c-27.3,0-54.6,0.1-82,0c-12.5-0.2-23.3-11.2-23.6-23.7c-0.1-25,0.5-49.9,0.3-74.9
		c0.2-2.7-0.7-5.8,1.4-7.9C65.7,111.1,71.6,106.4,78.5,104.3 M66.7,120.9c0.3,23.5-0.3,47.1-0.3,70.6c0.1,4.4-0.5,9,1.2,13.2
		c2.5,6.6,9.2,11.3,16.2,11.3c27.4,0,54.8,0,82.2,0c9.3,0.1,17.8-8.1,17.6-17.4c-0.1-25-0.2-50.1-0.4-75.1c0.2-2.2-1.8-3.7-3.7-4.3
		c-8-2.8-16.2-5.4-24.6-6.1c-2.7,0-6.4-0.5-7.9,2.4c-3.4,5.3-9.9,7.5-15.9,7.8c-12.5,0.6-24.7-4.1-35.3-10.4
		c-3.9-2.3-8.5-3.4-13-2.5C76.3,111.7,70.9,116,66.7,120.9z"/>
</g>
</svg>
