<svg width="797pt" height="797pt" viewBox="0 0 797 797" version="1.1" xmlns="http://www.w3.org/2000/svg" fill="currentColor">
<path d=" M 183.50 0.00 L 613.48 0.00 C 624.30 1.40 633.54 10.93 633.84 21.97 C 633.91 33.99 633.89 46.02 633.84 58.04 C 633.65 69.93 622.92 80.41 611.01 80.25 C 471.68 80.26 332.34 80.24 193.00 80.26 C 187.52 80.22 181.75 80.78 176.64 78.38 C 168.29 74.84 162.46 66.09 162.62 56.99 C 162.66 45.33 162.55 33.66 162.67 21.99 C 162.97 10.82 172.45 1.08 183.50 0.00 Z" />
<path d=" M 173.42 107.08 C 175.61 106.96 177.80 106.86 180.00 106.86 C 326.36 106.91 472.73 106.83 619.10 106.90 C 619.21 127.48 619.00 148.07 619.21 168.66 C 638.28 180.31 655.07 195.90 667.34 214.63 C 685.35 241.78 692.80 274.72 692.99 306.99 C 693.01 400.00 693.00 493.00 693.00 586.00 C 692.84 604.51 693.70 623.11 691.30 641.53 C 688.66 662.95 682.62 684.13 672.08 703.05 C 658.86 727.21 638.24 746.85 614.46 760.51 C 583.77 778.23 548.86 787.24 513.98 792.06 C 494.26 794.92 474.32 795.60 454.46 797.00 L 342.52 797.00 C 328.58 796.00 314.59 795.50 300.67 794.16 C 279.81 792.14 259.03 788.83 238.77 783.39 C 206.13 774.67 174.17 760.10 149.78 736.22 C 129.51 716.71 115.73 691.00 109.24 663.72 C 104.20 643.57 103.16 622.69 103.50 602.00 C 103.50 511.00 103.50 420.00 103.50 329.00 C 103.55 314.37 103.12 299.70 104.64 285.13 C 107.43 255.93 116.46 226.80 133.92 202.96 C 144.57 188.24 158.22 175.83 173.47 166.00 C 173.49 146.36 173.57 126.72 173.42 107.08 M 208.67 142.00 C 208.51 156.82 208.76 171.65 208.54 186.47 C 198.68 191.62 188.97 197.24 180.46 204.47 C 166.71 215.85 156.00 230.79 149.35 247.34 C 140.06 269.97 138.17 294.78 138.62 319.00 C 138.62 415.00 138.62 511.00 138.62 607.00 C 138.02 635.56 142.81 665.20 158.29 689.69 C 173.38 714.12 197.97 731.26 224.39 741.56 C 249.77 751.60 276.86 756.56 303.93 759.19 C 325.22 761.30 346.63 761.54 368.00 761.38 C 395.67 761.37 423.33 761.38 451.00 761.37 C 479.32 760.93 507.74 758.70 535.45 752.60 C 565.71 745.93 595.93 734.28 618.96 712.93 C 631.61 701.26 641.52 686.67 647.81 670.65 C 655.08 652.37 657.80 632.58 657.88 613.00 C 657.87 511.67 657.87 410.34 657.88 309.00 C 657.80 290.52 655.28 271.84 648.48 254.57 C 642.08 238.12 631.67 223.27 618.39 211.63 C 608.16 202.35 596.07 195.55 583.98 189.01 C 584.02 173.34 583.99 157.67 584.00 142.00 C 458.89 142.00 333.78 142.00 208.67 142.00 Z" />
</svg>
