<svg version="1.1" xmlns="http://www.w3.org/2000/svg" xmlns:xlink="http://www.w3.org/1999/xlink" x="0px" y="0px" viewBox="0 0 459.5 109.3" style="enable-background:new 0 0 459.5 109.3;" xml:space="preserve">
<path fill="#1EC28B" d="M449.1,0.3c5.8-1.8,12,4.5,10,10.3c-3.4,11.7-7.2,23.3-10.7,34.9c-0.5,2.2-1.9,4.1-3.8,5.2 c-3.6,1.5-8.1,0.3-10.2-3.1c-2.4-4-4.5-8.2-6.7-12.3c1.9-2,4.1-3.9,6-5.9c1.4-1.1,0.4-2.9,0.4-4.3c-1.2,0-2.6-0.7-3.6,0 c-2.4,1.9-4.5,4.2-6.8,6.2c-4.2-2-8.4-4.3-12.5-6.6c-2.8-1.4-4-4.8-4-7.4s2.3-5.5,5.3-6.1C424.6,7.6,436.9,4,449.1,0.3z"/>
<g id="_x23_2b2844ff">
	<path fill="#2B2844" d="M244.8,1c7-2.1,14,6.1,10.8,12.6c-2.4,6.1-11.6,7.7-15.6,2.4C235.6,11.2,238.5,2.4,244.8,1z"/>
	<path fill="#2B2844" d="M0,3c20,0,40,0,60,0c0,5.1,0,10.3,0,15.4c-7.3,0-14.7,0-22,0c0,22,0,44,0,66c-5.4,0-10.8,0-16.1,0 c0-22,0-44,0-66c-7.3,0-14.6,0-21.9,0C0,13.3,0,8.1,0,3z"/>
	<path fill="#2B2844" d="M110.1,31.2c10-9.2,27.8-9.2,36.6,1.8c0-2.2-0.1-4.5-0.1-6.7c5,0,10,0,15,0c0,19.4,0,38.8,0,58.1 c-5,0-10,0-15,0c0-2.2,0-4.4,0.1-6.6c-9,10.8-26.9,10.8-36.9,1.5C95.8,67.3,95.9,43,110.1,31.2 M123.9,40.1 c-10.1,4-12.6,18.7-5.4,26.5c6.1,7.1,18.8,6.8,24.6-0.6c4.4-5.3,4.7-13.6,1.3-19.5C140.4,39.6,131.1,37.2,123.9,40.1z"/>
	<path fill="#2B2844" d="M277.2,31.2c10.2-9.1,28.4-9.2,37,2.3c-0.1-2.4-0.1-4.8-0.1-7.1c4.9,0,9.7,0,14.6,0c0,18.7,0,37.5,0,56.2 c0,7.1-2.6,14.4-8.2,19.1c-8.4,7.4-20.4,9.1-31.1,6.8c-7.8-1.5-14.7-6.4-18.7-13.1c4.2-2.6,8.6-4.9,12.8-7.4 c2.3,3.6,5.6,6.7,10,7.5c6,1.2,13.4,0.8,17.6-4.3c3.7-4.3,3-10.4,3.1-15.7c-9.7,12.9-30.8,10.9-40.5-1 C262.9,62.2,264.4,41.3,277.2,31.2 M293,39.2c-9.2,2.1-14,13.1-10.3,21.5c3.7,10.2,18.1,12.6,26,5.9c7.3-5.9,7.3-18.4,0-24.3 C304.4,38.6,298.3,37.8,293,39.2z"/>
	<path fill="#2B2844" d="M365,25.1c8.2-1.5,17.1,0,23.9,4.9c7.6,5.3,12.8,14.1,13,23.5c0.6,8.9-2.8,18-9.4,24.1 c-11.1,11.2-31.2,11.2-42.5,0.3c-11.6-10.4-12.9-29.9-3-41.9C351.6,30.5,358,26.4,365,25.1 M366,40c-9.5,2.8-13.3,15.3-8.5,23.5 c4.2,8.3,16.5,10.3,23.5,4.5c7.7-5.8,8.1-18.7,0.8-24.9C377.6,39.2,371.3,38.4,366,40z"/>
	<path fill="#2B2844" d="M77,36.2C79.4,28.8,87.3,25,94.6,25c0,5.6,0,11.1,0,16.7c-4.9-0.4-10.1,0.8-13.8,4.1 c-2.8,2.8-3.9,6.8-3.8,10.7c0,9.3,0,18.6,0,27.9c-5,0-10,0-15,0c0-19.4,0-38.7,0-58.1c5,0,10,0,15,0C77,29.6,77,32.9,77,36.2z"/>
	<path fill="#2B2844" d="M170,26.3c5.5,0,11,0,16.5,0c4.6,13.5,9.2,27.1,14.1,40.5c4.6-13.5,9.5-27,14.1-40.5c5.5-0.1,11,0,16.5-0.1 c-7.3,19.4-14.7,38.8-22.1,58.2c-5.7-0.1-11.5,0.1-17.2-0.1C184.7,64.9,177.2,45.6,170,26.3z"/>
	<path fill="#2B2844" d="M239.6,26.3c5,0,10,0,15,0c0,19.4,0,38.8,0,58.1c-5,0-10,0-15,0C239.6,65,239.6,45.7,239.6,26.3z"/>
</g>
</svg>
